<svg xmlns="http://www.w3.org/2000/svg" viewBox="0 0 32 32" role="img" aria-label="Eco-Ogród">
  <defs>
    <linearGradient id="eco-fav-bg" x1="2" y1="2" x2="30" y2="30" gradientUnits="userSpaceOnUse">
      <stop offset="0" stop-color="#fafaf9"/>
      <stop offset="1" stop-color="#d6d3d1"/>
    </linearGradient>
    <style>
      .eco-fav-bg {
        fill: url(#eco-fav-bg);
      }
      .eco-fav-ring {
        fill: none;
        stroke: #a8a29e;
        stroke-width: 0.65;
        opacity: 0.55;
      }
      .eco-fav-leaf {
        fill: #064e3b;
      }
      @media (prefers-color-scheme: dark) {
        .eco-fav-bg {
          fill: #1c1917 !important;
        }
        .eco-fav-ring {
          stroke: #57534e;
          opacity: 0.7;
        }
        .eco-fav-leaf {
          fill: #6ee7b7;
        }
      }
    </style>
  </defs>
  <rect class="eco-fav-bg" width="32" height="32" rx="9" ry="9"/>
  <rect class="eco-fav-ring" width="31" height="31" x="0.5" y="0.5" rx="8.5" ry="8.5"/>
  <g class="eco-fav-leaf" transform="translate(4 4)">
    <path d="M12 2C8 6 6 10 6 14c0 3 2 5 6 8 4-3 6-5 6-8 0-4-2-8-6-12zm0 3.2c2.4 3.2 3.8 6.2 3.8 8.8 0 2-.8 3.4-2.2 4.8-1.1-1-1.8-2.2-1.8-3.6 0-2.2 0-5.8.2-10z"/>
  </g>
</svg>
